<svg id="Layer_1" data-name="Layer 1" xmlns="http://www.w3.org/2000/svg" viewBox="0 0 279.12 254.04"><defs><style>.cls-1{fill:#231f20;}</style></defs><title>coin</title><path class="cls-1" d="M339,286.4c-51.91-15.71-111.94-3.13-145.16,42-16.22,22-23.66,50.89-23,78,0.68,25.93,11.76,48.62,30.92,65.93,18.76,16.94,42.38,28.22,66.23,36,27.07,8.82,56.49,12.66,84.59,6.64,23.19-5,45.49-16.92,61.09-35,17.53-20.29,24.18-47.07,22.83-73.49-3.06-60.21-47.21-111.6-106.06-124.12-3.14-.67-4.48,4.15-1.33,4.82a129.77,129.77,0,0,1,99.56,98.43c5.7,25.75,4,54.94-9.46,78.1-11.5,19.72-30.84,34.06-52.09,41.83-25.08,9.18-52.5,9-78.35,3.28-24.06-5.33-48-14.77-68.51-28.47-19.36-12.91-35.92-30.91-41.77-53.93-6.62-26-1.55-56.76,10.42-80.57,12.14-24.14,33.81-42.81,58.85-52.65,28.68-11.27,60.6-10.92,89.86-2.06,3.09,0.93,4.41-3.89,1.33-4.82h0Z" transform="translate(-157.63 -279.95)"/><path class="cls-1" d="M203.92,371.66l1.21,53.26c0.07,3.21,5.07,3.22,5,0l-1.21-53.26c-0.07-3.21-5.07-3.22-5,0h0Z" transform="translate(-157.63 -279.95)"/><path class="cls-1" d="M226.35,373.08l23.7,0h8.53q2.62-.92,1.66,1c0.2,1-2.41,4.34-2.85,5.14l-2.85,5.14-23.79,42.83a2.52,2.52,0,0,0,1.49,3.67c14.27,2.69,28-1.29,41.5-5.66,3-1,1.74-5.82-1.33-4.82-12.54,4.06-25.56,8.16-38.84,5.66l1.49,3.67,15.22-27.41c4.79-8.63,10.55-17.22,14.53-26.25,3-6.89-2.6-7.94-8.13-7.93l-30.33,0c-3.22,0-3.22,5,0,5h0Z" transform="translate(-157.63 -279.95)"/><path class="cls-1" d="M256.78,403.93H225.26c-3.22,0-3.22,5,0,5h31.52c3.22,0,3.22-5,0-5h0Z" transform="translate(-157.63 -279.95)"/><path class="cls-1" d="M313.3,369.14l-19.68,0c-4.95,0-11.27-1.06-16.05.51-3.6,1.18-5,3.93-4.85,7.61A76,76,0,0,0,275.88,395a171.51,171.51,0,0,0,6,17.32c1.47,3.7,2.73,9.48,6,12.14,3.53,2.89,9.82,2.31,14.05,2.16a71.21,71.21,0,0,0,17.64-2.94c3.08-.9,1.77-5.73-1.33-4.82a67.12,67.12,0,0,1-13.59,2.61c-3.78.3-11.91,1.36-14.55-2.27-2.37-3.26-3.6-8.69-5-12.5-1.51-4-2.93-8-4.11-12.16a87.74,87.74,0,0,1-2.88-13.6c-0.22-1.79-1-5.1.84-6.42,1.34-1,5.36-.32,6.85-0.32l27.55,0c3.22,0,3.22-5,0-5h0Z" transform="translate(-157.63 -279.95)"/><path class="cls-1" d="M299.92,398.27a30.31,30.31,0,0,0-16.54.58c-3.05,1-1.75,5.81,1.33,4.82a25.23,25.23,0,0,1,13.88-.58c3.13,0.75,4.46-4.07,1.33-4.82h0Z" transform="translate(-157.63 -279.95)"/><path class="cls-1" d="M347.71,370.57l0.21,61.65,4.91-.66a266.26,266.26,0,0,1-3.4-29.14c-0.24-4.11-.91-8.69.08-12.73,1.17-4.75,5-6.8,9.18-8.61,2.71-1.19,9.35-4.4,12.46-3.7q3.32-.57,1.53,3.39-1.29,1.66-2.67,3.24c-1.12,1.31-2.28,2.59-3.45,3.85a134.87,134.87,0,0,1-20.24,17.72,2.52,2.52,0,0,0,1.26,4.66,164.54,164.54,0,0,1,41.14,10.62c3,1.19,4.29-3.64,1.33-4.82a169.36,169.36,0,0,0-42.47-10.8l1.26,4.66c10-7.17,19.87-15.59,27.32-25.49,2.16-2.87,3.95-7,.95-10s-7.89-1.92-11.47-1c-10.07,2.68-20.62,7-21.46,18.7-1,13.34,1.59,27.68,3.84,40.79,0.48,2.82,4.92,2.09,4.91-.66l-0.21-61.65c0-3.22-5-3.22-5,0h0Z" transform="translate(-157.63 -279.95)"/><path class="cls-1" d="M274.15,280.44c-29.77.42-57.56,15.08-77.48,36.79-21.77,23.73-33,55-36.93,86.58-2,16.12-3.52,34.24,0,50.25s17.13,28.82,28.09,40.3c22.84,23.92,52.49,37.25,85.48,39.34,39,2.47,77-11,110.63-29.82,2.81-1.57.29-5.89-2.52-4.32-28.59,16-60.23,28.12-93.3,29.34-30.47,1.12-62.05-7.24-85.52-27.32a188.78,188.78,0,0,1-17.44-17.49c-5.49-6.11-11.44-12.21-15.73-19.25-8.34-13.67-6.87-32-5.93-47.42,1.88-30.74,10.28-62,28.8-87.08,19.13-25.87,49.19-44.44,81.86-44.9,3.21,0,3.22-5,0-5h0Z" transform="translate(-157.63 -279.95)"/></svg>